# xmcd
#
# Track frame offsets: 
#        150
#        18862
#        40631
#        55372
#        73272
#        93261
#        119173
#        134141
#        150641
#        169645
#        195068
#        218912
#        241474
#        264236
#        288819
#        310824
#        334915
#
# Disc length: 4764 seconds
#
# Revision: 0
# Processed by: cddbd v1.5.2PL0 Copyright (c) Steve Scherf et al.
# Submitted via: ExactAudioCopy v1.3
#
DISCID=f1129a11
DTITLE=Various Artist - Akella Presents - vol. 216 - Electric Blues  
DTITLE=CD1
DYEAR=2019
DGENRE=Blues
TTITLE0=The Ripcords - The Roof Is Leaking
TTITLE1=Tubesnakes - Your Summer
TTITLE2=The Spectaculars - Sleepless Night
TTITLE3=Jimmy T and Sidetracked - Southside
TTITLE4=Blues Whale - Fish in a Bucket
TTITLE5=B.B. Leon and Triple Treat - Hailstorm
TTITLE6=Mike Morgan and The Crawl - Movin' It On
TTITLE7=Charles Tuberville - Lucinda
TTITLE8=Jonn Del Toro Richardson - I'm Her Man
TTITLE9=Jimmy Foot - You Used to Love Me
TTITLE10=Gregor Hilden - Congo Square
TTITLE11=Big James - Friends and Family
TTITLE12=Kern Pratt - Torn Between Love and Hate
TTITLE13=Jimmy Adler - No Pain
TTITLE14=Jim Roberts and The Resonants - Made A Promise
TTITLE15=Wildmen Bluesband - Make The Best Of It
TTITLE16=John Blues Boyd - On the Run
EXTD=
EXTT0=
EXTT1=
EXTT2=
EXTT3=
EXTT4=
EXTT5=
EXTT6=
EXTT7=
EXTT8=
EXTT9=
EXTT10=
EXTT11=
EXTT12=
EXTT13=
EXTT14=
EXTT15=
EXTT16=
PLAYORDER=
